<?xml version="1.0" standalone="no"?><!DOCTYPE svg PUBLIC "-//W3C//DTD SVG 1.1//EN" "http://www.w3.org/Graphics/SVG/1.1/DTD/svg11.dtd"><svg t="1606468845884" class="icon" viewBox="0 0 1024 1024" version="1.1" xmlns="http://www.w3.org/2000/svg" p-id="6358" xmlns:xlink="http://www.w3.org/1999/xlink" width="32" height="32"><defs><style type="text/css"></style></defs><path d="M1012.406955 555.235556c-6.826667-113.777778-102.4-200.248889-216.177778-193.422223-109.226667 2.275556-195.697778 95.573333-193.422222 204.8v11.377778c4.551111 63.715556 36.408889 118.328889 81.92 152.462222l-54.613334 200.248889 104.675556 91.022222 56.888889-250.311111h4.551111l86.471111 250.311111 102.4-95.573333-52.337778-197.973333c52.337778-40.96 84.195556-104.675556 79.644445-172.942222z" fill="#e6e6e6" p-id="6359"></path><path d="M830.36251 341.333333V91.022222c0-61.44-29.582222-91.022222-68.266666-91.022222H81.704732C43.020288 0 11.16251 34.133333 11.16251 72.817778v841.955555C11.16251 955.733333 40.744732 1001.244444 79.429177 1001.244444h477.866667v-45.511111H124.940288c-36.408889 2.275556-65.991111-27.306667-68.266667-63.715555V113.777778c-2.275556-36.408889 27.306667-65.991111 63.715556-68.266667H716.584732c38.684444 0 68.266667 4.551111 68.266667 45.511111v250.311111h45.511111z" fill="#e6e6e6" p-id="6360"></path><path d="M170.451399 159.288889h409.6c25.031111 0 45.511111 20.48 45.511111 45.511111s-20.48 45.511111-45.511111 45.511111H170.451399c-25.031111 0-45.511111-20.48-45.511111-45.511111s20.48-45.511111 45.511111-45.511111zM170.451399 409.6h409.6c25.031111 0 45.511111 20.48 45.511111 45.511111s-20.48 45.511111-45.511111 45.511111H170.451399c-25.031111 0-45.511111-20.48-45.511111-45.511111s20.48-45.511111 45.511111-45.511111zM170.451399 659.911111h45.511111c25.031111 0 45.511111 20.48 45.511111 45.511111s-20.48 45.511111-45.511111 45.511111H170.451399c-25.031111 0-45.511111-20.48-45.511111-45.511111s20.48-45.511111 45.511111-45.511111z" fill="#e6e6e6" p-id="6361"></path></svg>