<?xml version="1.0" standalone="no"?><!DOCTYPE svg PUBLIC "-//W3C//DTD SVG 1.1//EN" "http://www.w3.org/Graphics/SVG/1.1/DTD/svg11.dtd"><svg t="1606465135576" class="icon" viewBox="0 0 1024 1024" version="1.1" xmlns="http://www.w3.org/2000/svg" p-id="3714" xmlns:xlink="http://www.w3.org/1999/xlink" width="32" height="32"><defs><style type="text/css"></style></defs><path d="M512 1024a512 512 0 1 1 0-1024 512 512 0 0 1 0 1024z m267.106462-267.106462h-44.504616l12.603077-275.849846c0-22.528-14.572308-43.165538-32.610461-48.758154l-142.966154-46.867692c-5.435077-1.890462-10.791385 0-16.226462 1.811692-3.623385 3.780923 1.102769 30.089846 1.102769 35.761231v333.902769h-22.212923V289.398154c0-14.966154-9.609846-25.836308-20.48-35.209846-12.603077-9.452308-28.987077-11.264-45.213538-7.561846l-153.757539 45.056c-21.740308 5.592615-25.442462 40.093538-25.442461 64.512v400.699076h-44.504616c-20.795077 0-24.969846 22.212923-4.174769 22.212924h542.562462c24.103385 0 19.928615-22.212923-4.174769-22.212924zM667.805538 601.009231h-44.504615c-50.412308 0-50.491077-44.504615 0-44.504616h44.504615c43.401846 0.315077 45.843692 43.638154 0 44.504616zM467.495385 690.018462H356.194462a22.291692 22.291692 0 1 1 0-44.425847h111.300923a22.291692 22.291692 0 1 1 0 44.504616z m0-111.222154H356.194462c-31.665231 0-28.987077-45.213538 0-44.504616h111.300923c19.298462 0 19.298462 44.504615 0 44.504616z m0-111.300923H356.194462c-21.819077-0.945231-16.541538-44.819692 0-44.504616h111.300923c16.068923 0 16.068923 44.504615 0 44.504616z" p-id="3715"></path></svg>