<?xml version="1.0" standalone="no"?><!DOCTYPE svg PUBLIC "-//W3C//DTD SVG 1.1//EN" "http://www.w3.org/Graphics/SVG/1.1/DTD/svg11.dtd"><svg t="1606468905141" class="icon" viewBox="0 0 1417 1024" version="1.1" xmlns="http://www.w3.org/2000/svg" p-id="7252" xmlns:xlink="http://www.w3.org/1999/xlink" width="44.28125" height="32"><defs><style type="text/css"></style></defs><path d="M1243.320184 745.544326h-335.542856c-17.722334 0-34.657009-23.629779-34.657009-39.382964s16.934675-39.382964 34.657009-39.382965h335.542856c18.116164 0 34.657009 23.629779 34.657008 39.382965s-17.722334 39.382964-34.657008 39.382964z m-1075.154926 47.653387a31.900201 31.900201 0 0 1-25.992757-37.019987 284.738832 284.738832 0 0 1 206.760563-216.606303A163.833132 163.833132 0 0 1 257.958416 393.854455a168.165258 168.165258 0 0 1 170.922066-165.014621A168.165258 168.165258 0 0 1 599.802547 393.854455a163.833132 163.833132 0 0 1-90.974648 144.929308 284.738832 284.738832 0 0 1 206.760563 217.393963 31.506371 31.506371 0 0 1-25.992757 36.626157h-6.301274z m739.61207-305.217974h226.845874c17.722334 0 34.657009 23.629779 34.657009 39.382965s-16.934675 39.382964-34.657009 39.382964h-226.845874c-17.722334 0-34.657009-23.629779-34.657009-39.382964s16.934675-39.382964 34.657009-39.382965z m0-175.254191h226.845874c17.722334 0 34.657009 23.629779 34.657009 39.382964s-16.934675 39.382964-34.657009 39.382965h-226.845874c-17.722334 0-34.657009-24.023608-34.657009-39.382965s16.934675-39.382964 34.657009-39.382964zM1254.347414 0.024811H163.045472A160.682494 160.682494 0 0 0 0 157.556669v708.893358a160.682494 160.682494 0 0 0 163.045472 157.531857h1091.695772A160.682494 160.682494 0 0 0 1417.786716 866.450027V157.556669a160.682494 160.682494 0 0 0-163.439302-157.531858z"  p-id="7253"></path></svg>