<?xml version="1.0" standalone="no"?><!DOCTYPE svg PUBLIC "-//W3C//DTD SVG 1.1//EN" "http://www.w3.org/Graphics/SVG/1.1/DTD/svg11.dtd"><svg t="1606535004185" class="icon" viewBox="0 0 1024 1024" version="1.1" xmlns="http://www.w3.org/2000/svg" p-id="8151" xmlns:xlink="http://www.w3.org/1999/xlink" width="32" height="32"><defs><style type="text/css"></style></defs><path d="M659.62 443.729a44.144 44.144 0 0 1-44.144-44.144 104.842 104.842 0 0 0-209.683 0 44.144 44.144 0 1 1-88.288 0 193.13 193.13 0 1 1 386.259 0 44.144 44.144 0 0 1-44.144 44.144z"  p-id="8152"></path><path d="M794.81 443.729a44.144 44.144 0 0 1-44.143-44.144 240.032 240.032 0 1 0-480.065 0 44.144 44.144 0 0 1-88.288 0 328.32 328.32 0 1 1 656.64 0 44.144 44.144 0 0 1-44.143 44.144z"  p-id="8153"></path><path d="M898.273 595.473H556.158V443.73a44.144 44.144 0 0 0-88.288 0v151.744H125.755a55.18 55.18 0 0 0-55.18 55.18v246.93a55.18 55.18 0 0 0 55.18 55.18h772.518a55.18 55.18 0 0 0 55.18-55.18v-246.93a55.18 55.18 0 0 0-55.18-55.18zM206.676 818.262a44.144 44.144 0 1 1 44.144-44.144 44.144 44.144 0 0 1-44.144 44.144z m133.784 0a44.144 44.144 0 1 1 44.144-44.144 44.144 44.144 0 0 1-44.144 44.144z"  p-id="8154"></path></svg>