<?xml version="1.0" standalone="no"?><!DOCTYPE svg PUBLIC "-//W3C//DTD SVG 1.1//EN" "http://www.w3.org/Graphics/SVG/1.1/DTD/svg11.dtd"><svg t="1607063625149" class="icon" viewBox="0 0 1024 1024" version="1.1" xmlns="http://www.w3.org/2000/svg" p-id="7840" xmlns:xlink="http://www.w3.org/1999/xlink" width="32" height="32"><defs><style type="text/css"></style></defs><path d="M509.003 15C230.647 15 5 239.126 5 515.604c0 276.47 225.647 500.595 504.003 500.595 278.351 0 503.997-224.125 503.997-500.595C1013 239.126 787.354 15 509.003 15z m0 968.901c-260.395 0-471.487-209.661-471.487-468.298 0-258.638 211.092-468.306 471.487-468.306 260.394 0 471.48 209.668 471.48 468.306 0 124.197-49.675 243.313-138.091 331.139-88.42 87.821-208.348 137.159-333.389 137.159z m0 0" fill="#8a8a8a" p-id="7841"></path><path d="M775.384 663.971c7.554 0 12.569-5.019 12.569-12.516V300.331c0-7.501-5.016-12.518-12.569-12.518H247.996c-7.553 0-12.57 5.016-12.57 12.518v351.125c0 7.497 5.017 12.516 12.57 12.516h251.149v57.676l-42.675 42.62H235.426v25.088h220.99l46.453 46.401c2.536 2.483 6.259 3.775 8.794 3.775s6.259-1.24 8.794-3.775l46.454-46.401h220.99v-25.088h-220.99l-42.677-42.62v-57.676h251.15zM260.568 312.9h502.299v-5.881H260.568v5.881z m283.791 463.941l-32.642 32.584-32.641-32.584 32.641-32.589 32.642 32.589zM260.568 638.938v-325.23h502.299v325.173H260.568v0.057z m0 0" fill="#8a8a8a" p-id="7842"></path><path d="M616.708 422.318h-38.737v-15.701c0-4.586-4.154-8.309-9.279-8.309h-6.312v-8.202c0-4.584-4.155-8.306-9.282-8.306h-75.911c-5.124 0-9.279 3.722-9.279 8.306v8.202h-6.313c-5.126 0-9.28 3.723-9.28 8.309v15.701h-39.277c-5.127 0-9.282 3.722-9.282 8.307v134.666c0 4.585 4.154 8.309 9.282 8.309h203.669c5.124 0 9.279-3.724 9.279-8.309V430.625c0.001-4.585-4.154-8.307-9.278-8.307z m-9.227 134.664H422.318V438.935h39.33c5.127 0 9.28-3.723 9.28-8.31v-15.7h6.312c5.128 0 9.283-3.724 9.283-8.308v-8.202h57.459v8.202c0 4.584 4.152 8.308 9.279 8.308h6.313v15.7c0 4.587 4.155 8.31 9.279 8.31h38.737v118.048h-0.109z m0 0" fill="#8a8a8a" p-id="7843"></path><path d="M440.985 463.862v66.414c0 4.587 4.155 8.31 9.279 8.31H579.86c5.125 0 9.279-3.723 9.279-8.31v-66.414c0-4.587-4.154-8.311-9.279-8.311H450.211c-5.071 0-9.226 3.723-9.226 8.311z m18.506 8.306h111.087v49.8H558.6v-14.407c0-4.586-4.155-8.31-9.278-8.31-5.125 0-9.279 3.724-9.279 8.31v14.407H524.61v-14.407c0-4.586-4.153-8.31-9.278-8.31-5.127 0-9.279 3.724-9.279 8.31v14.407H491.43v-14.407c0-4.586-4.155-8.31-9.278-8.31-5.128 0-9.28 3.724-9.28 8.31v14.407h-13.381v-49.8z m0 0" fill="#8a8a8a" p-id="7844"></path></svg>