<?xml version="1.0" standalone="no"?><!DOCTYPE svg PUBLIC "-//W3C//DTD SVG 1.1//EN" "http://www.w3.org/Graphics/SVG/1.1/DTD/svg11.dtd"><svg t="1607063584377" class="icon" viewBox="0 0 1024 1024" version="1.1" xmlns="http://www.w3.org/2000/svg" p-id="5544" xmlns:xlink="http://www.w3.org/1999/xlink" width="32" height="32"><defs><style type="text/css"></style></defs><path d="M1023.999 511.9855h-63.986938l-0.012999-0.009c-0.006-123.702879-50.149951-235.69377-131.215872-316.759691l0.359999-0.359999A31.855969 31.855969 0 0 1 822.999196 175.999828c0-17.672983 14.326986-31.999969 31.999969-31.999969 7.049993 0 13.567987 2.279998 18.856982 6.142994l0.181999-0.181999 1.455999 1.461998a32.193969 32.193969 0 0 1 4.499996 4.592996c89.143913 92.13291 144.000859 217.644787 144.004859 355.969652z m-510.466501 512.0115L511.9995 1023.999C229.229776 1023.999 0 794.769224 0 511.9995c0-138.329865 54.857946-263.847742 144.005859-355.983652a32.193969 32.193969 0 0 1 4.499996-4.592996c0.484-0.488 0.968999-0.974999 1.454999-1.461998l0.181999 0.181999A31.855969 31.855969 0 0 1 168.999835 143.999859c17.672983 0 31.999969 14.326986 31.999969 31.999969 0 7.049993-2.279998 13.567987-6.142994 18.856982l0.359999 0.359999C114.142889 276.28673 63.999938 388.286621 63.999938 511.9995c0 247.415758 200.563804 447.986563 447.976562 447.999563 0.515999 0.686999 1.034999 1.371999 1.555999 2.054997 2.896997 3.792996 2.896997 10.67499 0 20.64598v41.29696zM799.999219 735.999281h63.999937c17.672983 0 31.999969 14.326986 31.999969 31.999969 0 17.672983-14.326986 31.999969-31.999969 31.999969h-95.999906c-17.672983 0-31.999969-14.326986-31.999969-31.999969V639.999375c0-17.672983 14.326986-31.999969 31.999969-31.999969 17.672983 0 31.999969 14.326986 31.999969 31.999969v95.999906zM511.9995 0c17.672983 0 31.999969 14.326986 31.999969 31.999969v479.999531c0 17.672983-14.326986 31.999969-31.999969 31.999969-17.672983 0-31.999969-14.326986-31.999969-31.999969V31.999969c0-17.672983 14.326986-31.999969 31.999969-31.999969z m255.99975 1023.999c-141.384862 0-255.99975-114.614888-255.99975-255.99975s114.614888-255.99975 255.99975-255.99975 255.99975 114.614888 255.99975 255.99975-114.614888 255.99975-255.99975 255.99975z m0-63.999937c106.038896 0 191.999813-85.960916 191.999813-191.999813s-85.960916-191.999813-191.999813-191.999812-191.999813 85.960916-191.999812 191.999812 85.960916 191.999813 191.999812 191.999813z m223.999781-415.999594c-17.672983 0-31.999969-14.326986-31.999968-31.999969 0-17.672983 14.326986-31.999969 31.999968-31.999969 17.672983 0 31.999969 14.326986 31.999969 31.999969 0 17.672983-14.326986 31.999969-31.999969 31.999969z m-479.999531 479.999531c-17.672983 0-31.999969-14.326986-31.999969-31.999969 0-17.672983 14.326986-31.999969 31.999969-31.999968 17.672983 0 31.999969 14.326986 31.999969 31.999968 0 17.672983-14.326986 31.999969-31.999969 31.999969z" fill="#8a8a8a" p-id="5545"></path></svg>