<?xml version="1.0" standalone="no"?><!DOCTYPE svg PUBLIC "-//W3C//DTD SVG 1.1//EN" "http://www.w3.org/Graphics/SVG/1.1/DTD/svg11.dtd"><svg t="1607063515843" class="icon" viewBox="0 0 1024 1024" version="1.1" xmlns="http://www.w3.org/2000/svg" p-id="3170" xmlns:xlink="http://www.w3.org/1999/xlink" width="32" height="32"><defs><style type="text/css"></style></defs><path d="M151.272727 186.181818a11.636364 11.636364 0 0 1 11.636364 11.636364v628.363636a11.636364 11.636364 0 0 1-11.636364 11.636364h-46.545454a11.636364 11.636364 0 0 1-11.636364-11.636364v-628.363636a11.636364 11.636364 0 0 1 11.636364-11.636364h46.545454z m768 0a11.636364 11.636364 0 0 1 11.636364 11.636364v628.363636a11.636364 11.636364 0 0 1-11.636364 11.636364h-46.545454a11.636364 11.636364 0 0 1-11.636364-11.636364v-628.363636a11.636364 11.636364 0 0 1 11.636364-11.636364h46.545454z m-674.909091 0a11.636364 11.636364 0 0 1 11.636364 11.636364v535.272727a11.636364 11.636364 0 0 1-11.636364 11.636364h-23.272727a11.636364 11.636364 0 0 1-11.636364-11.636364v-535.272727a11.636364 11.636364 0 0 1 11.636364-11.636364h23.272727z m558.545455 0a11.636364 11.636364 0 0 1 11.636364 11.636364v535.272727a11.636364 11.636364 0 0 1-11.636364 11.636364h-23.272727a11.636364 11.636364 0 0 1-11.636364-11.636364v-535.272727a11.636364 11.636364 0 0 1 11.636364-11.636364h23.272727z m-279.272727 0a11.636364 11.636364 0 0 1 11.636363 11.636364v535.272727a11.636364 11.636364 0 0 1-11.636363 11.636364h-23.272728a11.636364 11.636364 0 0 1-11.636363-11.636364v-535.272727a11.636364 11.636364 0 0 1 11.636363-11.636364h23.272728z m-162.909091 0a11.636364 11.636364 0 0 1 11.636363 11.636364v535.272727a11.636364 11.636364 0 0 1-11.636363 11.636364h-46.545455a11.636364 11.636364 0 0 1-11.636363-11.636364v-535.272727a11.636364 11.636364 0 0 1 11.636363-11.636364h46.545455z m349.090909 0a11.636364 11.636364 0 0 1 11.636363 11.636364v535.272727a11.636364 11.636364 0 0 1-11.636363 11.636364h-46.545455a11.636364 11.636364 0 0 1-11.636363-11.636364v-535.272727a11.636364 11.636364 0 0 1 11.636363-11.636364h46.545455zM437.527273 186.181818c2.56 0 4.654545 2.094545 4.654545 4.654546v549.236363a4.654545 4.654545 0 0 1-4.654545 4.654546h-13.963637a4.654545 4.654545 0 0 1-4.654545-4.654546V190.836364c0-2.56 2.094545-4.654545 4.654545-4.654546h13.963637z m162.909091 0c2.56 0 4.654545 2.094545 4.654545 4.654546v549.236363a4.654545 4.654545 0 0 1-4.654545 4.654546h-13.963637a4.654545 4.654545 0 0 1-4.654545-4.654546V190.836364c0-2.56 2.094545-4.654545 4.654545-4.654546h13.963637zM244.363636 791.272727a11.636364 11.636364 0 0 1 11.636364 11.636364v23.272727a11.636364 11.636364 0 0 1-11.636364 11.636364h-23.272727a11.636364 11.636364 0 0 1-11.636364-11.636364v-23.272727a11.636364 11.636364 0 0 1 11.636364-11.636364h23.272727z m279.272728 0a11.636364 11.636364 0 0 1 11.636363 11.636364v23.272727a11.636364 11.636364 0 0 1-11.636363 11.636364h-23.272728a11.636364 11.636364 0 0 1-11.636363-11.636364v-23.272727a11.636364 11.636364 0 0 1 11.636363-11.636364h23.272728z m-186.181819 0a11.636364 11.636364 0 0 1 11.636364 11.636364v23.272727a11.636364 11.636364 0 0 1-11.636364 11.636364h-23.272727a11.636364 11.636364 0 0 1-11.636363-11.636364v-23.272727a11.636364 11.636364 0 0 1 11.636363-11.636364h23.272727z m279.272728 0a11.636364 11.636364 0 0 1 11.636363 11.636364v23.272727a11.636364 11.636364 0 0 1-11.636363 11.636364h-23.272728a11.636364 11.636364 0 0 1-11.636363-11.636364v-23.272727a11.636364 11.636364 0 0 1 11.636363-11.636364h23.272728z m186.181818 0a11.636364 11.636364 0 0 1 11.636364 11.636364v23.272727a11.636364 11.636364 0 0 1-11.636364 11.636364h-23.272727a11.636364 11.636364 0 0 1-11.636364-11.636364v-23.272727a11.636364 11.636364 0 0 1 11.636364-11.636364h23.272727z m-372.363636 0a11.636364 11.636364 0 0 1 11.636363 11.636364v23.272727a11.636364 11.636364 0 0 1-11.636363 11.636364h-23.272728a11.636364 11.636364 0 0 1-11.636363-11.636364v-23.272727a11.636364 11.636364 0 0 1 11.636363-11.636364h23.272728z m279.272727 0a11.636364 11.636364 0 0 1 11.636363 11.636364v23.272727a11.636364 11.636364 0 0 1-11.636363 11.636364h-23.272727a11.636364 11.636364 0 0 1-11.636364-11.636364v-23.272727a11.636364 11.636364 0 0 1 11.636364-11.636364h23.272727z" fill="#8a8a8a" p-id="3171"></path></svg>